name Walk8.mot
datacolumns 19
datarows 20
range 2.25200000 2.27100000
endheader

                time	   L_ground_force_vx	   L_ground_force_vy	   L_ground_force_vz	   L_ground_force_px	   L_ground_force_py	   L_ground_force_pz	   R_ground_force_vx	   R_ground_force_vy	   R_ground_force_vz	   R_ground_force_px	   R_ground_force_py	   R_ground_force_pz	   L_ground_torque_x	   L_ground_torque_y	   L_ground_torque_z	   R_ground_torque_x	   R_ground_torque_y	   R_ground_torque_z	
          2.25200000	          0.00000000	          0.00000000	          0.00000000	          0.00000000	          0.00000000	          0.00000000	        -28.18269935	        865.67597824	        -53.26014279	          0.57143623	          0.00000000	          0.14860788	          0.00000000	          0.00000000	          0.00000000	          0.00000000	          0.91709828	          0.00000000	
          2.25300000	          0.00000000	          0.00000000	          0.00000000	          0.00000000	          0.00000000	          0.00000000	        -27.74909055	        863.54708175	        -53.04710331	          0.57162530	          0.00000000	          0.14868418	          0.00000000	          0.00000000	          0.00000000	          0.00000000	          0.83675266	          0.00000000	
          2.25400000	          0.00000000	          0.00000000	          0.00000000	          0.00000000	          0.00000000	          0.00000000	        -27.32186334	        861.35853370	        -52.83893223	          0.57182509	          0.00000000	          0.14876832	          0.00000000	          0.00000000	          0.00000000	          0.00000000	          0.75664741	          0.00000000	
          2.25500000	          0.00000000	          0.00000000	          0.00000000	          0.00000000	          0.00000000	          0.00000000	        -26.90178129	        859.13450597	        -52.63135832	          0.57206524	          0.00000000	          0.14884587	          0.00000000	          0.00000000	          0.00000000	          0.00000000	          0.68423749	          0.00000000	
          2.25600000	          0.00000000	          0.00000000	          0.00000000	          0.00000000	          0.00000000	          0.00000000	        -26.49228466	        856.92339236	        -52.42518180	          0.57235389	          0.00000000	          0.14891042	          0.00000000	          0.00000000	          0.00000000	          0.00000000	          0.62291207	          0.00000000	
          2.25700000	          0.00000000	          0.00000000	          0.00000000	          0.00000000	          0.00000000	          0.00000000	        -26.10151780	        854.76747271	        -52.21984964	          0.57267183	          0.00000000	          0.14896395	          0.00000000	          0.00000000	          0.00000000	          0.00000000	          0.56900427	          0.00000000	
          2.25800000	          0.00000000	          0.00000000	          0.00000000	          0.00000000	          0.00000000	          0.00000000	        -25.73521913	        852.67345107	        -52.01147427	          0.57299035	          0.00000000	          0.14901372	          0.00000000	          0.00000000	          0.00000000	          0.00000000	          0.51557569	          0.00000000	
          2.25900000	          0.00000000	          0.00000000	          0.00000000	          0.00000000	          0.00000000	          0.00000000	        -25.38514889	        850.60254276	        -51.79739611	          0.57329022	          0.00000000	          0.14906459	          0.00000000	          0.00000000	          0.00000000	          0.00000000	          0.45871325	          0.00000000	
          2.26000000	          0.00000000	          0.00000000	          0.00000000	          0.00000000	          0.00000000	          0.00000000	        -25.03043069	        848.49723123	        -51.57569017	          0.57356447	          0.00000000	          0.14911427	          0.00000000	          0.00000000	          0.00000000	          0.00000000	          0.39880748	          0.00000000	
          2.26100000	          0.00000000	          0.00000000	          0.00000000	          0.00000000	          0.00000000	          0.00000000	        -24.65222817	        846.32128407	        -51.34287130	          0.57381478	          0.00000000	          0.14915699	          0.00000000	          0.00000000	          0.00000000	          0.00000000	          0.33839510	          0.00000000	
          2.26200000	          0.00000000	          0.00000000	          0.00000000	          0.00000000	          0.00000000	          0.00000000	        -24.24769028	        844.08565684	        -51.09856700	          0.57404622	          0.00000000	          0.14919056	          0.00000000	          0.00000000	          0.00000000	          0.00000000	          0.28231278	          0.00000000	
          2.26300000	          0.00000000	          0.00000000	          0.00000000	          0.00000000	          0.00000000	          0.00000000	        -23.83246032	        841.84086548	        -50.84821914	          0.57426431	          0.00000000	          0.14921766	          0.00000000	          0.00000000	          0.00000000	          0.00000000	          0.23752045	          0.00000000	
          2.26400000	          0.00000000	          0.00000000	          0.00000000	          0.00000000	          0.00000000	          0.00000000	        -23.42837371	        839.64763983	        -50.59632939	          0.57447535	          0.00000000	          0.14924304	          0.00000000	          0.00000000	          0.00000000	          0.00000000	          0.20896636	          0.00000000	
          2.26500000	          0.00000000	          0.00000000	          0.00000000	          0.00000000	          0.00000000	          0.00000000	        -23.04792485	        837.56049281	        -50.34131033	          0.57468702	          0.00000000	          0.14927269	          0.00000000	          0.00000000	          0.00000000	          0.00000000	          0.19515654	          0.00000000	
          2.26600000	          0.00000000	          0.00000000	          0.00000000	          0.00000000	          0.00000000	          0.00000000	        -22.69130408	        835.60971689	        -50.08028666	          0.57490930	          0.00000000	          0.14930992	          0.00000000	          0.00000000	          0.00000000	          0.00000000	          0.18761908	          0.00000000	
          2.26700000	          0.00000000	          0.00000000	          0.00000000	          0.00000000	          0.00000000	          0.00000000	        -22.35589021	        833.77901054	        -49.81684702	          0.57514602	          0.00000000	          0.14934950	          0.00000000	          0.00000000	          0.00000000	          0.00000000	          0.17255786	          0.00000000	
          2.26800000	          0.00000000	          0.00000000	          0.00000000	          0.00000000	          0.00000000	          0.00000000	        -22.04178856	        832.01370493	        -49.56334305	          0.57538576	          0.00000000	          0.14938117	          0.00000000	          0.00000000	          0.00000000	          0.00000000	          0.13552500	          0.00000000	
          2.26900000	          0.00000000	          0.00000000	          0.00000000	          0.00000000	          0.00000000	          0.00000000	        -21.74516162	        830.25825382	        -49.33278661	          0.57561491	          0.00000000	          0.14940441	          0.00000000	          0.00000000	          0.00000000	          0.00000000	          0.07161609	          0.00000000	
          2.27000000	          0.00000000	          0.00000000	          0.00000000	          0.00000000	          0.00000000	          0.00000000	        -21.45271915	        828.49708106	        -49.12802258	          0.57583534	          0.00000000	          0.14943374	          0.00000000	          0.00000000	          0.00000000	          0.00000000	         -0.00972531	          0.00000000	
          2.27100000	          0.00000000	          0.00000000	          0.00000000	          0.00000000	          0.00000000	          0.00000000	        -21.14630032	        826.75443500	        -48.94466184	          0.57605992	          0.00000000	          0.14947847	          0.00000000	          0.00000000	          0.00000000	          0.00000000	         -0.09472249	          0.00000000	
